<svg xmlns="http://www.w3.org/2000/svg" xmlns:xlink="http://www.w3.org/1999/xlink" contentStyleType="text/css" data-diagram-type="CLASS" height="605px" preserveAspectRatio="none" style="width:272px;height:605px;background:#FFFFFF;" version="1.1" viewBox="0 0 272 605" width="272px" zoomAndPan="magnify"><defs/><g><!--class Customer--><g class="entity" data-entity="Customer" data-source-line="1" data-uid="ent0002" id="entity_Customer"><rect fill="#F1F1F1" height="129.4844" rx="2.5" ry="2.5" style="stroke:#181818;stroke-width:0.5;" width="237.8525" x="17.31" y="7"/><ellipse cx="97.9843" cy="23" fill="#ADD1B2" rx="11" ry="11" style="stroke:#181818;stroke-width:1;"/><path d="M100.9531,28.6406 Q100.3749,28.9375 99.7343,29.0781 Q99.0937,29.2344 98.3906,29.2344 Q95.8906,29.2344 94.5624,27.5938 Q93.2499,25.9375 93.2499,22.8125 Q93.2499,19.6875 94.5624,18.0313 Q95.8906,16.375 98.3906,16.375 Q99.0937,16.375 99.7343,16.5313 Q100.3906,16.6875 100.9531,16.9844 L100.9531,19.7031 Q100.3281,19.125 99.7343,18.8594 Q99.1406,18.5781 98.5156,18.5781 Q97.1718,18.5781 96.4843,19.6563 Q95.7968,20.7188 95.7968,22.8125 Q95.7968,24.9063 96.4843,25.9844 Q97.1718,27.0469 98.5156,27.0469 Q99.1406,27.0469 99.7343,26.7813 Q100.3281,26.5 100.9531,25.9219 L100.9531,28.6406 Z " fill="#000000"/><text fill="#000000" font-family="sans-serif" font-size="14" lengthAdjust="spacing" textLength="68.0039" x="118.4843" y="27.8467">Customer</text><line style="stroke:#181818;stroke-width:0.5;" x1="18.31" x2="254.1625" y1="39" y2="39"/><rect fill="none" height="6" style="stroke:#C82930;stroke-width:1;" width="6" x="25.31" y="49.6484"/><text fill="#000000" font-family="sans-serif" font-size="14" lengthAdjust="spacing" textLength="62.1318" x="37.31" y="55.9951">id: string</text><rect fill="none" height="6" style="stroke:#C82930;stroke-width:1;" width="6" x="25.31" y="65.9453"/><text fill="#000000" font-family="sans-serif" font-size="14" lengthAdjust="spacing" textLength="89.0586" x="37.31" y="72.292">name: string</text><rect fill="none" height="6" style="stroke:#C82930;stroke-width:1;" width="6" x="25.31" y="82.2422"/><text fill="#000000" font-family="sans-serif" font-size="14" lengthAdjust="spacing" textLength="87.9648" x="37.31" y="88.5889">email: string</text><line style="stroke:#181818;stroke-width:0.5;" x1="18.31" x2="254.1625" y1="95.8906" y2="95.8906"/><ellipse cx="28.31" cy="109.5391" fill="#84BE84" rx="3" ry="3" style="stroke:#038048;stroke-width:1;"/><text fill="#000000" font-family="sans-serif" font-size="14" lengthAdjust="spacing" textLength="124.5713" x="37.31" y="112.8857">getName(): string</text><ellipse cx="28.31" cy="125.8359" fill="#84BE84" rx="3" ry="3" style="stroke:#038048;stroke-width:1;"/><text fill="#000000" font-family="sans-serif" font-size="14" lengthAdjust="spacing" textLength="211.8525" x="37.31" y="129.1826">getAccounts(): List&lt;Account&gt;</text></g><!--class Account--><g class="entity" data-entity="Account" data-source-line="9" data-uid="ent0003" id="entity_Account"><rect fill="#F1F1F1" height="145.7813" rx="2.5" ry="2.5" style="stroke:#181818;stroke-width:0.5;" width="258.4697" x="7" y="213.48"/><ellipse cx="103.5986" cy="229.48" fill="#ADD1B2" rx="11" ry="11" style="stroke:#181818;stroke-width:1;"/><path d="M106.5674,235.1206 Q105.9893,235.4175 105.3486,235.5581 Q104.708,235.7144 104.0049,235.7144 Q101.5049,235.7144 100.1768,234.0738 Q98.8643,232.4175 98.8643,229.2925 Q98.8643,226.1675 100.1768,224.5113 Q101.5049,222.855 104.0049,222.855 Q104.708,222.855 105.3486,223.0113 Q106.0049,223.1675 106.5674,223.4644 L106.5674,226.1831 Q105.9424,225.605 105.3486,225.3394 Q104.7549,225.0581 104.1299,225.0581 Q102.7861,225.0581 102.0986,226.1363 Q101.4111,227.1988 101.4111,229.2925 Q101.4111,231.3863 102.0986,232.4644 Q102.7861,233.5269 104.1299,233.5269 Q104.7549,233.5269 105.3486,233.2613 Q105.9424,232.98 106.5674,232.4019 L106.5674,235.1206 Z " fill="#000000"/><text fill="#000000" font-family="sans-serif" font-size="14" lengthAdjust="spacing" textLength="56.7725" x="124.0986" y="234.3267">Account</text><line style="stroke:#181818;stroke-width:0.5;" x1="8" x2="264.4697" y1="245.48" y2="245.48"/><rect fill="none" height="6" style="stroke:#C82930;stroke-width:1;" width="6" x="15" y="256.1284"/><text fill="#000000" font-family="sans-serif" font-size="14" lengthAdjust="spacing" textLength="62.1318" x="27" y="262.4751">id: string</text><rect fill="none" height="6" style="stroke:#C82930;stroke-width:1;" width="6" x="15" y="272.4253"/><text fill="#000000" font-family="sans-serif" font-size="14" lengthAdjust="spacing" textLength="119.4785" x="27" y="278.772">balance: decimal</text><rect fill="none" height="6" style="stroke:#C82930;stroke-width:1;" width="6" x="15" y="288.7222"/><text fill="#000000" font-family="sans-serif" font-size="14" lengthAdjust="spacing" textLength="128.2969" x="27" y="295.0689">customerId: string</text><line style="stroke:#181818;stroke-width:0.5;" x1="8" x2="264.4697" y1="302.3706" y2="302.3706"/><ellipse cx="18" cy="316.0191" fill="#84BE84" rx="3" ry="3" style="stroke:#038048;stroke-width:1;"/><text fill="#000000" font-family="sans-serif" font-size="14" lengthAdjust="spacing" textLength="219.7207" x="27" y="319.3657">deposit(amount: decimal): void</text><ellipse cx="18" cy="332.3159" fill="#84BE84" rx="3" ry="3" style="stroke:#038048;stroke-width:1;"/><text fill="#000000" font-family="sans-serif" font-size="14" lengthAdjust="spacing" textLength="232.4697" x="27" y="335.6626">withdraw(amount: decimal): void</text><ellipse cx="18" cy="348.6128" fill="#84BE84" rx="3" ry="3" style="stroke:#038048;stroke-width:1;"/><text fill="#000000" font-family="sans-serif" font-size="14" lengthAdjust="spacing" textLength="154.1094" x="27" y="351.9595">getBalance(): decimal</text></g><!--class Transaction--><g class="entity" data-entity="Transaction" data-source-line="18" data-uid="ent0004" id="entity_Transaction"><rect fill="#F1F1F1" height="162.0781" rx="2.5" ry="2.5" style="stroke:#181818;stroke-width:0.5;" width="179.2891" x="46.59" y="436.26"/><ellipse cx="90.9108" cy="452.26" fill="#ADD1B2" rx="11" ry="11" style="stroke:#181818;stroke-width:1;"/><path d="M93.8796,457.9006 Q93.3014,458.1975 92.6608,458.3381 Q92.0202,458.4944 91.3171,458.4944 Q88.8171,458.4944 87.4889,456.8538 Q86.1764,455.1975 86.1764,452.0725 Q86.1764,448.9475 87.4889,447.2913 Q88.8171,445.635 91.3171,445.635 Q92.0202,445.635 92.6608,445.7913 Q93.3171,445.9475 93.8796,446.2444 L93.8796,448.9631 Q93.2546,448.385 92.6608,448.1194 Q92.0671,447.8381 91.4421,447.8381 Q90.0983,447.8381 89.4108,448.9163 Q88.7233,449.9788 88.7233,452.0725 Q88.7233,454.1663 89.4108,455.2444 Q90.0983,456.3069 91.4421,456.3069 Q92.0671,456.3069 92.6608,456.0413 Q93.2546,455.76 93.8796,455.1819 L93.8796,457.9006 Z " fill="#000000"/><text fill="#000000" font-family="sans-serif" font-size="14" lengthAdjust="spacing" textLength="82.1475" x="111.4108" y="457.1067">Transaction</text><line style="stroke:#181818;stroke-width:0.5;" x1="47.59" x2="224.8791" y1="468.26" y2="468.26"/><rect fill="none" height="6" style="stroke:#C82930;stroke-width:1;" width="6" x="54.59" y="478.9084"/><text fill="#000000" font-family="sans-serif" font-size="14" lengthAdjust="spacing" textLength="62.1318" x="66.59" y="485.2551">id: string</text><rect fill="none" height="6" style="stroke:#C82930;stroke-width:1;" width="6" x="54.59" y="495.2053"/><text fill="#000000" font-family="sans-serif" font-size="14" lengthAdjust="spacing" textLength="118.3779" x="66.59" y="501.552">amount: decimal</text><rect fill="none" height="6" style="stroke:#C82930;stroke-width:1;" width="6" x="54.59" y="511.5022"/><text fill="#000000" font-family="sans-serif" font-size="14" lengthAdjust="spacing" textLength="80.6299" x="66.59" y="517.8489">type: string</text><rect fill="none" height="6" style="stroke:#C82930;stroke-width:1;" width="6" x="54.59" y="527.7991"/><text fill="#000000" font-family="sans-serif" font-size="14" lengthAdjust="spacing" textLength="147.8818" x="66.59" y="534.1457">timestamp: datetime</text><rect fill="none" height="6" style="stroke:#C82930;stroke-width:1;" width="6" x="54.59" y="544.0959"/><text fill="#000000" font-family="sans-serif" font-size="14" lengthAdjust="spacing" textLength="118.1455" x="66.59" y="550.4426">accountId: string</text><line style="stroke:#181818;stroke-width:0.5;" x1="47.59" x2="224.8791" y1="557.7444" y2="557.7444"/><ellipse cx="57.59" cy="571.3928" fill="#84BE84" rx="3" ry="3" style="stroke:#038048;stroke-width:1;"/><text fill="#000000" font-family="sans-serif" font-size="14" lengthAdjust="spacing" textLength="153.2891" x="66.59" y="574.7395">getAmount(): decimal</text><ellipse cx="57.59" cy="587.6897" fill="#84BE84" rx="3" ry="3" style="stroke:#038048;stroke-width:1;"/><text fill="#000000" font-family="sans-serif" font-size="14" lengthAdjust="spacing" textLength="117.6055" x="66.59" y="591.0364">getType(): string</text></g><!--link Customer to Account--><g class="link" data-entity-1="Customer" data-entity-2="Account" data-source-line="28" data-uid="lnk5" id="link_Customer_Account"><path codeLine="28" d="M136.23,136.82 C136.23,160.91 136.23,188.46 136.23,213.23" fill="none" id="Customer-Account" style="stroke:#181818;stroke-width:1;"/><text fill="#000000" font-family="sans-serif" font-size="13" lengthAdjust="spacing" textLength="33.5981" x="137.23" y="179.5469">owns</text><text fill="#000000" font-family="sans-serif" font-size="13" lengthAdjust="spacing" textLength="8.271" x="127.8308" y="156.3783">1</text><text fill="#000000" font-family="sans-serif" font-size="13" lengthAdjust="spacing" textLength="6.5" x="129.9588" y="202.3654">*</text></g><!--link Account to Transaction--><g class="link" data-entity-1="Account" data-entity-2="Transaction" data-source-line="29" data-uid="lnk6" id="link_Account_Transaction"><path codeLine="29" d="M136.23,359.49 C136.23,383.74 136.23,410.94 136.23,435.79" fill="none" id="Account-Transaction" style="stroke:#181818;stroke-width:1;"/><text fill="#000000" font-family="sans-serif" font-size="13" lengthAdjust="spacing" textLength="22.9785" x="137.23" y="402.3269">has</text><text fill="#000000" font-family="sans-serif" font-size="13" lengthAdjust="spacing" textLength="8.271" x="127.8612" y="379.2473">1</text><text fill="#000000" font-family="sans-serif" font-size="13" lengthAdjust="spacing" textLength="6.5" x="129.9933" y="425.2134">*</text></g><!--SRC=[VL51QiCm4Bph5OjFIOiFkPeIQ7iAb9poWQqaaWLBCjvDJGZzUoNPCR89FUveTcPsf5jaXiyhIt2sXxi2g85C0omz-NCUFJgx0An3QWla5SvMZf6rsQxHTwt3rGkdbozYUPk0lVfLIcVp2Ndk_OqjUXtjZTNaiCsWdk8UpCBEs2umoGPTqfjNelDF89Cf0yd5z3ZynucfFqRN5FhXEySzzUWPjL3mpoElf3CcjsvPeP2pBEYwo4EnQHoNnp9MbwKYisgPQ7euHUcYzvXp_irgLq5TG_LIpIKt40RFwZ4MZFAk1Yx8Vm00]--></g></svg>